<?xml version="1.0" encoding="UTF-8" standalone="no"?>
<svg height="16px" viewBox="0 0 16 16" width="16px" xmlns="http://www.w3.org/2000/svg" sodipodi:docname="org.nickvision.spotlight-symbolic.svg" inkscape:version="1.2.1 (9c6d41e410, 2022-07-14)" xmlns:inkscape="http://www.inkscape.org/namespaces/inkscape" xmlns:sodipodi="http://sodipodi.sourceforge.net/DTD/sodipodi-0.dtd" xmlns:svg="http://www.w3.org/2000/svg">
    <sodipodi:namedview pagecolor="#ffffff" bordercolor="#000000" borderopacity="0.25" inkscape:showpageshadow="2" inkscape:pageopacity="0.0" inkscape:pagecheckerboard="0" inkscape:deskcolor="#d1d1d1" showgrid="true" inkscape:zoom="20.885066" inkscape:cx="8.5228363" inkscape:cy="7.6609765" inkscape:window-width="1280" inkscape:window-height="731" inkscape:window-x="0" inkscape:window-y="0" inkscape:window-maximized="1" inkscape:current-layer="svg8315">
        <inkscape:grid/>
    </sodipodi:namedview>
    <path d="m 4 1 c -1.64453 0 -3 1.35547 -3 3 v 8 c 0 1.64843 1.35547 3 3 3 h 3 a 1 1 0 0 0 1 -1 a 1 1 0 0 0 -1 -1 h -3 c -0.57031 0 -1 -0.42578 -1 -1 v -8 c 0 -0.57031 0.42969 -1 1 -1 h 8 c 0.57031 0 1 0.42969 1 1 v 3 a 1 1 0 0 0 1 1 a 1 1 0 0 0 1 -1 v -3 c 0 -1.64453 -1.35547 -3 -3 -3 z m 2 4 c -0.55078 0 -1 0.44922 -1 1 c 0 0.55469 0.44922 1 1 1 s 1 -0.44531 1 -1 c 0 -0.55078 -0.44922 -1 -1 -1 z m 4.74805 3.00781 c -1.51046 0 -2.74805 1.23368 -2.74805 2.74414 s 1.23759 2.74414 2.74805 2.74414 c 0.57537 0 1.11022 -0.18119 1.55273 -0.48632 l 1.83984 1.83789 c 0.12474 0.13058 0.31287 0.18349 0.48633 0.13672 c 0.17541 -0.0448 0.31065 -0.18202 0.35547 -0.35743 c 0.0468 -0.17346 -0.004 -0.36159 -0.13476 -0.48633 l -1.83985 -1.83593 c 0.30549 -0.44216 0.48633 -0.97736 0.48633 -1.55274 c 0 -1.51046 -1.23563 -2.74414 -2.74609 -2.74414 z m -4.74805 0.99219 l -2 2 v 0.5 c 0 0.5 0.5 0.5 0.5 0.5 h 2.7168 c -0.13936 -0.3906 -0.2168 -0.81102 -0.2168 -1.24805 c 0 -0.3441 0.0487 -0.67718 0.13672 -0.99414 z m 4.74805 0.006 c 0.97059 0 1.74804 0.7755 1.74804 1.74609 s -0.77745 1.7461 -1.74804 1.7461 c -0.97254 -0 -1.74805 -0.77551 -1.74805 -1.7461 s 0.77551 -1.74609 1.74805 -1.74609 z" fill="#222222"/>
</svg>
